<?xml version="1.0" encoding="utf-8"?>
<!-- Generator: Adobe Illustrator 20.1.0, SVG Export Plug-In . SVG Version: 6.00 Build 0)  -->
<svg version="1.1" id="Layer_1" xmlns="http://www.w3.org/2000/svg" xmlns:xlink="http://www.w3.org/1999/xlink" x="0px" y="0px" viewBox="0 0 661 357.7" style="enable-background:new 0 0 661 357.7;" xml:space="preserve">
<style type="text/css">
	.st0{fill:#F9E242;}
	.st1{fill:#E31C3D;}
	.st2{fill:#3E94CF;}
	.st3{font-family:'Insaniburger';}
	.st4{font-size:11px;}
	.st5{fill:#ED1C24;}
	.st6{font-size:12px;}
	.st7{fill:#FFFFFF;stroke:#000000;stroke-miterlimit:10;}
	.st8{fill:#FFFFFF;}
	.st9{font-family:'OpenSans';}
	.st10{fill:#FFFFFF;stroke:#000000;stroke-width:3;stroke-miterlimit:10;}
	.st11{display:none;fill:#FFFFFF;stroke:#000000;stroke-width:3;stroke-miterlimit:10;}

	    .tooltip {
	      opacity: 0;
	      transition: all 0.6s ease;
	    }

	    .st7:hover + .tooltip,
	    .st8:hover + .tooltip,
	    .st10:hover + .tooltip {
	      opacity: 1;
	    }

	    .st7:hover,
	    .st8:hover,
	    .st10:hover {
	      fill: #4aa564;
	      stroke: #000;
	      cursor: pointer;
	    }
</style>
<g id="line-yellow">
	<path class="st0" d="M283.8,249.9l69.6,0c2.3,0,4.3,1.9,4.3,4.3l0,0c0,2.3-1.9,4.3-4.3,4.3h-69.6c-2.3,0-4.3-1.9-4.3-4.3v0
		C279.5,251.8,281.4,249.9,283.8,249.9z"/>
	<path class="st0" d="M379.8,167.4l-22.3,87.1c-0.6,2.3-2.9,3.6-5.2,3.1l0,0c-2.3-0.6-3.6-2.9-3.1-5.2l22.3-87.1
		c0.6-2.3,2.9-3.6,5.2-3.1v0C379,162.8,380.4,165.2,379.8,167.4z"/>
	<path class="st0" d="M286.4,250.3l-84.7-84.7c-1.8-1.8-4.6-1.8-6.4,0l-0.1,0.1c-1.8,1.8-1.8,4.6,0,6.4l84.7,84.7
		c1.8,1.8,4.6,1.8,6.4,0l0.1-0.1C288.1,254.9,288.1,252,286.4,250.3z"/>
</g>
<path class="st1" d="M277.9,79.5l69.2,0c2.3,0,4.3-1.9,4.3-4.3v0c0-2.3-1.9-4.3-4.3-4.3l-69.2,0c-2.3,0-4.3,1.9-4.3,4.3v0
	C273.7,77.6,275.6,79.5,277.9,79.5z"/>
<path id="line-red-3" class="st1" d="M380,158.1L351.4,74c-0.8-2.2-3.2-3.4-5.4-2.7l0,0c-2.2,0.8-3.4,3.2-2.7,5.4l28.6,84.2
	c0.8,2.2,3.2,3.4,5.4,2.7l0,0C379.5,162.8,380.7,160.3,380,158.1z"/>
<path id="line-red-1" class="st1" d="M195.4,164.5l85.4-85.4c1.8-1.8,1.8-4.6,0-6.4l-0.1-0.1c-1.8-1.8-4.6-1.8-6.4,0L188.9,158
	c-1.8,1.8-1.8,4.6,0,6.4l0.1,0.1C190.8,166.2,193.7,166.2,195.4,164.5z"/>
<path id="line-blue" class="st2" d="M599.8,166.7H45.2c-2.5,0-4.5-2-4.5-4.5v0c0-2.5,2-4.5,4.5-4.5h554.5c2.5,0,4.5,2,4.5,4.5v0
	C604.2,164.6,602.2,166.7,599.8,166.7z"/>
<text transform="matrix(0.9999 -1.299000e-02 1.299000e-02 0.9999 503.8414 339.0634)" class="st3 st4">pilot</text>
<circle id="legend-red" class="st5" cx="489" cy="335.2" r="8.3"/>
<text transform="matrix(0.9999 -1.299000e-02 1.299000e-02 0.9999 503.8415 313.312)" class="st3 st4">non-standard</text>
<circle id="legend-yellow" class="st0" cx="489.2" cy="309.4" r="8.3"/>
<text transform="matrix(0.9999 -1.299000e-02 1.299000e-02 0.9999 503.842 289.3126)" class="st3 st4">standard</text>
<circle id="legend-blue" class="st2" cx="489.3" cy="285.4" r="8.3"/>
<text transform="matrix(0.7071 -0.7071 0.7071 0.7071 550.4283 224.168)" class="st3 st6">DISCONTINUE</text>
<circle id="station-discontinue" class="st7" cx="599.8" cy="161.7" r="4"/>
<g id="tooltip-discontinue" class="tooltip">
	<path d="M631.8,144.5h-63.5c-1.1,0-2-0.9-2-2V83.2c0-1.1,0.9-2,2-2h63.5c1.1,0,2,0.9,2,2v59.3C633.8,143.6,632.8,144.5,631.8,144.5
		z"/>
	<polygon points="600.8,151.1 614.2,127.7 603.3,127.7 596.9,127.7 594.7,140.6 	"/>
	<text transform="matrix(1 0 0 1 569.5381 92.9831)"><tspan x="0" y="0" class="st8 st9 st4">enter a new</tspan><tspan x="0" y="12" class="st8 st9 st4">ServiceNow</tspan><tspan x="0" y="24" class="st8 st9 st4">ticket to </tspan><tspan x="0" y="36" class="st8 st9 st4">remove</tspan><tspan x="0" y="48" class="st8 st9 st4">software</tspan></text>
</g>
<text transform="matrix(0.7071 -0.7071 0.7071 0.7071 512.6392 188.168)" class="st3 st6">USE</text>
<circle id="station-use" class="st8" cx="523.4" cy="162.2" r="4"/>
<g id="tooltip-use" class="tooltip">
	<path d="M571.8,144.5h-81.5c-1.1,0-2-0.9-2-2v-28.3c0-1.1,0.9-2,2-2h81.5c1.1,0,2,0.9,2,2v28.3
		C573.8,143.6,572.9,144.5,571.8,144.5z"/>
	<polygon points="522.7,151.1 536.2,127.7 525.2,127.7 518.9,127.7 516.7,140.6 	"/>
	<text transform="matrix(1 0 0 1 491.4995 125.9831)"><tspan x="0" y="0" class="st8 st9 st4">start using your</tspan><tspan x="0" y="12" class="st8 st9 st4">new software</tspan></text>
</g>
<text transform="matrix(0.7071 -0.7071 0.7071 0.7071 445.1392 208.168)" class="st3 st6">ACQUIRE</text>
<circle id="station-acquire" class="st8" cx="477.9" cy="162.2" r="4"/>
<g id="tooltip-acquire" class="tooltip">
	<path d="M527.8,143.9h-81.5c-1.1,0-2-0.9-2-2v-37.4c0-1.1,0.9-2,2-2h81.5c1.1,0,2,0.9,2,2v37.4C529.8,143,528.9,143.9,527.8,143.9z
		"/>
	<polygon points="478.8,150.4 492.2,127.1 481.3,127.1 474.9,127.1 472.7,140 	"/>
	<text transform="matrix(1 0 0 1 447.5381 114.3382)"><tspan x="0" y="0" class="st8 st9 st4">see contracting</tspan><tspan x="0" y="12" class="st8 st9 st4">officer for </tspan><tspan x="0" y="24" class="st8 st9 st4">purchases</tspan></text>
</g>
<text transform="matrix(0.7071 -0.7071 0.7071 0.7071 331.1392 208.168)" class="st3 st6">APPROVE</text>
<circle id="station-approve" class="st10" cx="376.1" cy="161.7" r="7"/>
<g id="tooltip-approve" class="tooltip">
	<path d="M415.3,143.9H344c-1.1,0-2-0.9-2-2v-27.3c0-1.1,0.9-2,2-2h71.4c1.1,0,2,0.9,2,2v27.3C417.3,143,416.4,143.9,415.3,143.9z"
		/>
	<polygon points="376.5,148.4 389.9,125.1 379,125.1 372.6,125.1 370.4,138 	"/>
	<text transform="matrix(1 0 0 1 345.2425 124.3382)"><tspan x="0" y="0" class="st8 st9 st4">software can </tspan><tspan x="0" y="12" class="st8 st9 st4">now be used</tspan></text>
</g>
<text transform="matrix(0.7071 -0.7071 0.7071 0.7071 282.1392 208.168)" class="st3 st6">MONITOR</text>
<circle id="station-monitor" class="st8" cx="324.1" cy="162.2" r="4"/>
<g id="tooltip-monitor" class="tooltip">
	<path d="M363.3,143.9H292c-1.1,0-2-0.9-2-2V90.5c0-1.1,0.9-2,2-2h71.4c1.1,0,2,0.9,2,2v51.4C365.3,143,364.4,143.9,363.3,143.9z"/>
	<polygon points="324.5,150.4 337.9,127.1 327,127.1 320.6,127.1 318.4,140 	"/>
	<text transform="matrix(1 0 0 1 293.2425 101.3382)"><tspan x="0" y="0" class="st8 st9 st4">monitor your</tspan><tspan x="0" y="12" class="st8 st9 st4">ServiceNow</tspan><tspan x="0" y="24" class="st8 st9 st4">ticket for</tspan><tspan x="0" y="36" class="st8 st9 st4">updates</tspan></text>
</g>
<text transform="matrix(0.7071 0.7071 -0.7071 0.7071 253.9723 57.374)" class="st3 st4">tsc</text>
<circle id="station-pilot-tsc" class="st10" cx="277.7" cy="76.2" r="4"/>
<g id="tooltip-pilot-tsc" class="tooltip">
	<path d="M338.8,61.7h-66.6c-1.1,0-2-0.9-2-2V21c0-1.1,0.9-2,2-2h66.6c1.1,0,2,0.9,2,2v38.7C340.8,60.8,339.9,61.7,338.8,61.7z"/>
	<polygon points="277.7,68.2 291.2,44.9 280.3,44.9 273.9,44.9 271.7,57.8 	"/>
	<text transform="matrix(1 0 0 1 273.5181 30.1482)"><tspan x="0" y="0" class="st8 st9 st4">reviewed </tspan><tspan x="0" y="12" class="st8 st9 st4">needed by </tspan><tspan x="0" y="24" class="st8 st9 st4">TSC and CTO</tspan></text>
	<circle id="station-ns-tsc_1_" class="st11" cx="283.6" cy="253.1" r="4"/>
</g>
<text transform="matrix(0.7071 0.7071 -0.7071 0.7071 182.8297 90.2202)" class="st3 st4">security</text>
<circle id="station-pilot-security" class="st8" cx="226.1" cy="127.2" r="4"/>
<g id="tooltip-pilot-security" class="tooltip">
	<path d="M269.1,111.3h-47c-1.1,0-2-0.9-2-2V66.5c0-1.1,0.9-2,2-2h47c1.1,0,2,0.9,2,2v42.8C271.1,110.4,270.2,111.3,269.1,111.3z"/>
	<polygon points="227.6,117.9 241.1,94.5 230.1,94.5 223.7,94.5 221.6,107.4 	"/>
	<text transform="matrix(1 0 0 1 225.3802 77.7849)"><tspan x="0" y="0" class="st8 st9 st4">security</tspan><tspan x="0" y="13.2" class="st8 st9 st4">review</tspan><tspan x="0" y="26.4" class="st8 st9 st4">needed</tspan></text>
</g>
<text transform="matrix(0.7071 -0.7071 0.7071 0.7071 266.1226 277.0972)" class="st3 st4">tsc</text>
<circle id="station-ns-tsc_2_" class="st10" cx="283.6" cy="253.1" r="4"/>
<g id="tooltip-ns-tsc" class="tooltip">
	<path d="M344.8,237.2h-66.6c-1.1,0-2-0.9-2-2v-38.7c0-1.1,0.9-2,2-2h66.6c1.1,0,2,0.9,2,2v38.7
		C346.8,236.3,345.9,237.2,344.8,237.2z"/>
	<polygon points="283.7,243.7 297.2,220.4 286.2,220.4 279.9,220.4 277.7,233.3 	"/>
	<text transform="matrix(1 0 0 1 279.488 205.6482)"><tspan x="0" y="0" class="st8 st9 st4">reviewed </tspan><tspan x="0" y="12" class="st8 st9 st4">needed by </tspan><tspan x="0" y="24" class="st8 st9 st4">TSC and CTO</tspan></text>
</g>
<text transform="matrix(0.7071 -0.7071 0.7071 0.7071 236.648 243.7183)" class="st3 st4">508</text>
<circle id="station-ns-508" class="st8" cx="251.6" cy="221.9" r="4"/>
<g id="tooltip-ns-508" class="tooltip">
	<path d="M315.4,207.1h-66.6c-1.1,0-2-0.9-2-2v-47.9c0-1.1,0.9-2,2-2h66.6c1.1,0,2,0.9,2,2v47.9
		C317.4,206.2,316.5,207.1,315.4,207.1z"/>
	<polygon points="254.4,213.6 267.8,190.3 256.9,190.3 250.5,190.3 248.3,203.2 	"/>
	<text transform="matrix(1 0 0 1 252.1317 168.5583)"><tspan x="0" y="0" class="st8 st9 st4">508 </tspan><tspan x="0" y="11" class="st8 st9 st4">accessibility</tspan><tspan x="0" y="22" class="st8 st9 st4">review</tspan><tspan x="0" y="33" class="st8 st9 st4">needed</tspan></text>
</g>
<text transform="matrix(0.7071 -0.7071 0.7071 0.7071 188.8502 238.5703)" class="st3 st4">security</text>
<circle id="station-ns-security" class="st8" cx="226.1" cy="196.5" r="4"/>
<g id="tooltip-ns-security" class="tooltip">
	<path d="M270.4,182.3h-47c-1.1,0-2-0.9-2-2v-33.2c0-1.1,0.9-2,2-2h47c1.1,0,2,0.9,2,2v33.2C272.4,181.4,271.5,182.3,270.4,182.3z"
		/>
	<polygon points="228.9,188.9 242.3,165.5 231.4,165.5 225,165.5 222.8,178.4 	"/>
	<text transform="matrix(1 0 0 1 226.6302 155.7917)"><tspan x="0" y="0" class="st8 st9 st4">security</tspan><tspan x="0" y="11" class="st8 st9 st4">review</tspan><tspan x="0" y="22" class="st8 st9 st4">needed</tspan></text>
</g>
<text transform="matrix(0.7071 -0.7071 0.7071 0.7071 158.3033 208.168)" class="st3 st6">REQUEST</text>
<circle id="station-request" class="st10" cx="194.6" cy="162.2" r="7"/>
<g class="tooltip">
	<path d="M216.3,144.2h-65.6c-1.1,0-2-0.9-2-2V99.4c0-1.1,0.9-2,2-2h65.6c1.1,0,2,0.9,2,2v42.8C218.3,143.3,217.4,144.2,216.3,144.2
		z"/>
	<polygon points="195.2,150.7 208.7,127.3 181.7,127.3 	"/>
	<text transform="matrix(1 0 0 1 153.9731 110.6079)"><tspan x="0" y="0" class="st8 st9 st4">enter your</tspan><tspan x="0" y="13.2" class="st8 st9 st4">request in </tspan><tspan x="0" y="26.4" class="st8 st9 st4">ServiceNow</tspan></text>
</g>
<text transform="matrix(0.7071 -0.7071 0.7071 0.7071 116.8033 201.668)" class="st3 st6">GATHER</text>
<circle id="station-gather" class="st8" cx="146.2" cy="162.2" r="4"/>
<g id="tooltip-gather" class="tooltip">
	<path d="M188.6,144.2h-63.8c-1.1,0-2-0.9-2-2V78.5c0-1.1,0.9-2,2-2h63.8c1.1,0,2,0.9,2,2v63.8C190.6,143.3,189.7,144.2,188.6,144.2
		z"/>
	<polygon points="147.3,150.8 160.8,127.4 133.8,127.4 	"/>
	<text transform="matrix(1 0 0 1 131.1732 90.9683)"><tspan x="0" y="0" class="st8 st9 st4">collect the </tspan><tspan x="0" y="11" class="st8 st9 st4">info you’ll </tspan><tspan x="0" y="22" class="st8 st9 st4">need to </tspan><tspan x="0" y="33" class="st8 st9 st4">enter a </tspan><tspan x="0" y="44" class="st8 st9 st4">request</tspan></text>
</g>
<text transform="matrix(0.7071 -0.7071 0.7071 0.7071 63.3033 211.168)" class="st3 st6">RESEARCH</text>
<circle id="station-research" class="st8" cx="101.8" cy="162.2" r="4"/>
<g id="tooltip-research_1_" class="tooltip">
	<path d="M148.2,144H78.5c-1.1,0-2-0.9-2-2V87.2c0-1.1,0.9-2,2-2h69.7c1.1,0,2,0.9,2,2V142C150.2,143.1,149.3,144,148.2,144z"/>
	<polygon points="101,150.5 114.5,127.2 87.5,127.2 	"/>
	<text transform="matrix(1 0 0 1 82.4923 99.0504)"><tspan x="0" y="0" class="st8 st9 st4">check to see</tspan><tspan x="0" y="13.2" class="st8 st9 st4">if the tool</tspan><tspan x="0" y="26.4" class="st8 st9 st4">is approved</tspan><tspan x="0" y="39.6" class="st8 st9 st4">in GEAR</tspan></text>
</g>
<circle id="station-start" class="st7" cx="44.2" cy="162.2" r="4"/>
<text transform="matrix(0.7071 -0.7071 0.7071 0.7071 19.5533 197.1592)" class="st3 st6">start</text>
</svg>
