<?xml version="1.0" encoding="UTF-8" standalone="no"?>
<svg width="391px" height="246px" viewBox="0 0 391 246" version="1.1" xmlns="http://www.w3.org/2000/svg" xmlns:xlink="http://www.w3.org/1999/xlink">
    <!-- Generator: Sketch 3.8.3 (29802) - http://www.bohemiancoding.com/sketch -->
    <title>gsads-logo</title>
    <desc>Created with Sketch.</desc>
    <defs></defs>
    <g id="Page-1" stroke="none" stroke-width="1" fill="none" fill-rule="evenodd">
        <g id="usds-logo-ondark" transform="translate(-18.000000, 0.000000)">
            <path d="M404.986,32.628 L20.554,32.628 C19.472,32.628 18.634,33.697 18.804,34.885 C21.3,52.073 36.076,62.16 45.699,66.253 L379.844,66.253 C389.468,62.16 404.242,52.073 406.738,34.885 C406.912,33.697 406.07,32.628 404.986,32.628" id="Fill-25" fill="#D7C02E"></path>
            <path d="M77.65,91.993 L347.892,91.993 C355.367,89.347 368.323,83.179 373.988,70.541 L51.556,70.541 C57.221,83.179 70.175,89.347 77.65,91.993" id="Fill-26" fill="#D7C02E"></path>
            <path d="M111.377,113.457 C111.475,113.485 119.507,113.494 119.611,113.494 C122.208,113.504 158.323,113.629 212.772,113.686 C267.221,113.629 303.334,113.504 305.932,113.494 C306.037,113.494 314.068,113.485 314.167,113.457 C316.244,112.952 332.409,112.161 342.393,96.286 L83.153,96.286 C93.133,112.161 109.301,112.952 111.377,113.457" id="Fill-27" fill="#D7C02E"></path>
            <path d="M342.412,30.544 C342.412,87.649 284.369,133.937 212.772,133.937 C141.169,133.937 83.131,87.649 83.131,30.544" id="Fill-28" fill="#A69B44"></path>
            <path d="M151.708,5.878 L151.708,118.786 C151.708,120.149 150.226,121.459 151.157,122.452 C151.157,122.452 184.017,168.43 208.563,186.496 C211.836,188.906 214.085,189.023 217.491,186.496 C241.865,168.43 274.387,122.452 274.387,122.452 C275.317,121.459 273.835,120.149 273.835,118.786 L273.835,5.878 C273.835,2.916 273.436,2.514 270.474,2.514 L155.071,2.514 C152.11,2.514 151.708,2.916 151.708,5.878" id="Fill-29" fill="#FFFFFF"></path>
            <path d="M207.307,23.988 L195.306,25.73 L203.988,34.193 L201.935,46.145 L212.67,40.502 L223.403,46.145 L221.352,34.193 L230.037,25.73 L218.036,23.988 L212.67,13.112 L207.307,23.988 L207.307,23.988 Z M248.961,24.456 L241.562,25.53 L246.915,30.748 L245.651,38.121 L252.269,34.64 L258.888,38.121 L257.622,30.748 L262.979,25.53 L255.577,24.456 L252.269,17.75 L248.961,24.456 L248.961,24.456 Z M169.966,24.456 L162.565,25.53 L167.919,30.748 L166.655,38.121 L173.276,34.64 L179.893,38.121 L178.631,30.748 L183.983,25.53 L176.583,24.456 L173.276,17.75 L169.966,24.456 L169.966,24.456 Z M155.071,0.514 L270.474,0.514 C273.436,0.514 275.835,2.916 275.835,5.878 L275.835,118.786 C275.835,120.149 275.318,121.459 274.387,122.452 C274.387,122.452 264.259,136.772 251.069,152.569 L251.069,60.724 L225.142,60.724 L225.144,180.195 C222.537,182.53 219.973,184.657 217.491,186.496 C214.085,189.023 211.837,188.906 208.563,186.496 C205.923,184.553 203.186,182.285 200.403,179.788 L200.405,60.724 L174.476,60.724 L174.473,152.295 C161.273,136.607 151.157,122.452 151.157,122.452 C150.226,121.459 149.709,120.149 149.709,118.786 L149.709,5.878 C149.709,2.916 152.11,0.514 155.071,0.514 L155.071,0.514 Z" id="Fill-30" fill="#00538E"></path>
        </g>
        <g id="gsa_logo" transform="translate(137.000000, 3.000000)">
            <rect id="Rectangle-path" fill="#00538E" x="0" y="0" width="116.9964" height="117.313618"></rect>
            <path d="M70.7499,86.5417405 C70.7499,94.772916 64.2924,98.2093282 56.844,97.970626 C54.1998,97.8850534 51.6249,97.2157863 48.8196,96.2997099 L49.4559,90.3744885 C51.8301,91.3527176 54.9072,92.412916 57.4839,92.3732824 C60.8499,92.3210382 64.2132,90.757313 64.2132,86.8570076 C64.2132,83.8529618 61.8102,82.3748092 59.4864,81.1975115 C54.3483,78.5889008 48.4389,76.7774656 48.4389,69.4893893 C48.4389,62.5985496 53.9145,59.0045038 60.7014,59.0045038 C63.1683,59.0045038 66.114,59.4341679 69.0705,60.4826565 L68.184,66.3178015 C64.9647,65.0540305 63.558,64.6054504 60.9138,64.6054504 C57.9861,64.6054504 54.9765,65.6350229 54.9765,69.0155878 C54.9765,71.6575267 57.6855,73.0293893 59.6997,74.035542 C65.1582,76.7612519 70.7499,78.9996489 70.7499,86.5417405" id="Shape" fill="#FFFFFF"></path>
            <path d="M40.1049,96.2015267 C37.7361,97.0131145 34.1091,97.970626 28.3221,97.970626 C16.4466,97.970626 8.4978,90.2880153 8.4978,78.3294809 C8.4978,66.7258473 16.9353,59.0036031 28.3752,59.0036031 C33.8076,59.0036031 36.2295,59.810687 39.6621,60.9960916 L39.1455,67.496 C35.9865,65.4296489 33.2973,64.6036489 28.6389,64.6036489 C20.4579,64.6036489 14.9967,70.5288702 15.0354,78.4862137 C15.0741,87.0488702 21.0186,92.3723817 28.3752,92.3723817 C30.5685,92.3723817 32.4324,92.2120458 33.7716,91.8598473 L33.7716,82.1045802 L26.6967,82.1045802 L26.6967,76.6072214 L40.1049,76.6072214 L40.1049,96.2015267" id="Shape" fill="#FFFFFF"></path>
            <polyline id="Shape" fill="#FFFFFF" points="91.8369 58.1776031 100.8567 78.2925496 94.572 78.2925496 91.8369 71.6079847 89.0964 78.2925496 82.8126 78.2925496 91.8369 58.1776031"></polyline>
            <polyline id="Shape" fill="#FFFFFF" points="100.9602 78.5276489 109.3563 97.3085649 102.7584 97.3085649 96.4827 82.7252061 100.9602 78.5276489"></polyline>
            <polyline id="Shape" fill="#FFFFFF" points="82.71 78.5312519 87.1857 82.7270076 83.8791 90.2925191 91.8243 86.1228855 96.3981 89.6484733 80.7543 97.3103664 74.313 97.3103664 82.71 78.5312519"></polyline>
        </g>
        <text id="GSADS-text-color" font-family="SourceSansPro-Semibold, Source Sans Pro" font-size="36" font-weight="500" letter-spacing="3" fill="#A69B44">
            <tspan x="2.894" y="236">GSA DIGITAL SERVICE</tspan>
        </text>
    </g>
</svg>